<svg width="1633" height="113" viewBox="0 0 1633 113" fill="none" xmlns="http://www.w3.org/2000/svg">
<path d="M0.03125 111V1.90909H47.1193C55.2159 1.90909 62.3004 3.5071 68.3729 6.70312C74.4453 9.89914 79.1683 14.3913 82.5419 20.1797C85.9155 25.968 87.6023 32.733 87.6023 40.4744C87.6023 48.2869 85.8622 55.0518 82.3821 60.7692C78.9375 66.4865 74.0902 70.8899 67.8402 73.9794C61.6257 77.0689 54.3636 78.6136 46.054 78.6136H17.929V55.6023H40.0881C43.5682 55.6023 46.5334 54.9986 48.9837 53.7912C51.4695 52.5483 53.3693 50.7905 54.6832 48.5178C56.0327 46.245 56.7074 43.5639 56.7074 40.4744C56.7074 37.3494 56.0327 34.6861 54.6832 32.4844C53.3693 30.2472 51.4695 28.5426 48.9837 27.3707C46.5334 26.1633 43.5682 25.5597 40.0881 25.5597H29.6477V111H0.03125ZM98.4688 111V1.90909H128.085V44.5227H167.29V1.90909H196.906V111H167.29V68.3864H128.085V111H98.4688ZM316.651 56.4545C316.651 68.5994 314.289 78.8445 309.566 87.1896C304.843 95.4993 298.469 101.803 290.443 106.099C282.418 110.361 273.469 112.491 263.597 112.491C253.653 112.491 244.669 110.343 236.643 106.046C228.653 101.714 222.297 95.3928 217.574 87.0831C212.886 78.7379 210.543 68.5284 210.543 56.4545C210.543 44.3097 212.886 34.0824 217.574 25.7727C222.297 17.4276 228.653 11.1243 236.643 6.86292C244.669 2.56605 253.653 0.41761 263.597 0.41761C273.469 0.41761 282.418 2.56605 290.443 6.86292C298.469 11.1243 304.843 17.4276 309.566 25.7727C314.289 34.0824 316.651 44.3097 316.651 56.4545ZM286.182 56.4545C286.182 49.9205 285.312 44.4162 283.572 39.9418C281.867 35.4318 279.328 32.0227 275.955 29.7145C272.616 27.3707 268.497 26.1989 263.597 26.1989C258.696 26.1989 254.559 27.3707 251.185 29.7145C247.847 32.0227 245.308 35.4318 243.568 39.9418C241.864 44.4162 241.011 49.9205 241.011 56.4545C241.011 62.9886 241.864 68.5107 243.568 73.0206C245.308 77.495 247.847 80.9041 251.185 83.2479C254.559 85.5561 258.696 86.7102 263.597 86.7102C268.497 86.7102 272.616 85.5561 275.955 83.2479C279.328 80.9041 281.867 77.495 283.572 73.0206C285.312 68.5107 286.182 62.9886 286.182 56.4545ZM322.244 25.7727V1.90909H417.059V25.7727H384.246V111H355.056V25.7727H322.244ZM528.76 56.4545C528.76 68.5994 526.398 78.8445 521.675 87.1896C516.952 95.4993 510.578 101.803 502.553 106.099C494.527 110.361 485.578 112.491 475.706 112.491C465.763 112.491 456.778 110.343 448.753 106.046C440.763 101.714 434.406 95.3928 429.683 87.0831C424.996 78.7379 422.652 68.5284 422.652 56.4545C422.652 44.3097 424.996 34.0824 429.683 25.7727C434.406 17.4276 440.763 11.1243 448.753 6.86292C456.778 2.56605 465.763 0.41761 475.706 0.41761C485.578 0.41761 494.527 2.56605 502.553 6.86292C510.578 11.1243 516.952 17.4276 521.675 25.7727C526.398 34.0824 528.76 44.3097 528.76 56.4545ZM498.291 56.4545C498.291 49.9205 497.421 44.4162 495.681 39.9418C493.977 35.4318 491.438 32.0227 488.064 29.7145C484.726 27.3707 480.607 26.1989 475.706 26.1989C470.805 26.1989 466.668 27.3707 463.295 29.7145C459.957 32.0227 457.418 35.4318 455.678 39.9418C453.973 44.4162 453.121 49.9205 453.121 56.4545C453.121 62.9886 453.973 68.5107 455.678 73.0206C457.418 77.495 459.957 80.9041 463.295 83.2479C466.668 85.5561 470.805 86.7102 475.706 86.7102C480.607 86.7102 484.726 85.5561 488.064 83.2479C491.438 80.9041 493.977 77.495 495.681 73.0206C497.421 68.5107 498.291 62.9886 498.291 56.4545ZM613.308 37.9176C612.846 36.0355 612.118 34.3842 611.124 32.9638C610.13 31.5078 608.887 30.2827 607.395 29.2884C605.939 28.2585 604.235 27.495 602.282 26.9979C600.364 26.4652 598.251 26.1989 595.943 26.1989C590.971 26.1989 586.728 27.3885 583.212 29.7678C579.732 32.147 577.069 35.5739 575.222 40.0483C573.411 44.5227 572.506 49.9205 572.506 56.2415C572.506 62.6335 573.376 68.1023 575.116 72.6477C576.856 77.1932 579.448 80.6733 582.893 83.0881C586.337 85.5028 590.616 86.7102 595.73 86.7102C600.24 86.7102 603.986 86.0533 606.969 84.7393C609.988 83.4254 612.243 81.5611 613.734 79.1463C615.226 76.7315 615.971 73.8906 615.971 70.6236L621.085 71.1562H596.156V50.0625H644.523V65.1903C644.523 75.1335 642.41 83.6385 638.184 90.7053C633.993 97.7365 628.205 103.134 620.819 106.898C613.468 110.627 605.034 112.491 595.517 112.491C584.899 112.491 575.577 110.237 567.552 105.727C559.526 101.217 553.258 94.7891 548.748 86.4439C544.274 78.0987 542.037 68.1733 542.037 56.6676C542.037 47.6477 543.404 39.6577 546.138 32.6974C548.908 25.7372 552.743 19.8601 557.644 15.066C562.545 10.2365 568.209 6.59659 574.636 4.1463C581.064 1.66051 587.953 0.41761 595.304 0.41761C601.767 0.41761 607.768 1.34091 613.308 3.1875C618.883 4.99858 623.802 7.5909 628.063 10.9645C632.36 14.3026 635.822 18.2621 638.45 22.843C641.078 27.424 642.676 32.4489 643.244 37.9176H613.308ZM658.332 111V1.90909H705.42C713.517 1.90909 720.601 3.38281 726.674 6.33025C732.746 9.2777 737.469 13.5213 740.843 19.0611C744.216 24.6009 745.903 31.2415 745.903 38.983C745.903 46.7955 744.163 53.3828 740.683 58.745C737.238 64.1072 732.391 68.1555 726.141 70.8899C719.926 73.6243 712.664 74.9915 704.355 74.9915H676.23V51.9801H698.389C701.869 51.9801 704.834 51.554 707.284 50.7017C709.77 49.8139 711.67 48.4112 712.984 46.4936C714.333 44.576 715.008 42.0724 715.008 38.983C715.008 35.858 714.333 33.3189 712.984 31.3658C711.67 29.3771 709.77 27.9212 707.284 26.9979C704.834 26.0391 701.869 25.5597 698.389 25.5597H687.949V111H658.332ZM722.252 60.929L749.525 111H717.352L690.718 60.929H722.252ZM786.865 111H754.905L790.914 1.90909H831.397L867.405 111H835.445L811.581 31.9517H810.729L786.865 111ZM780.9 67.9602H840.985V90.1193H780.9V67.9602ZM877.912 111V1.90909H925C933.097 1.90909 940.181 3.5071 946.254 6.70312C952.326 9.89914 957.049 14.3913 960.423 20.1797C963.796 25.968 965.483 32.733 965.483 40.4744C965.483 48.2869 963.743 55.0518 960.263 60.7692C956.818 66.4865 951.971 70.8899 945.721 73.9794C939.507 77.0689 932.244 78.6136 923.935 78.6136H895.81V55.6023H917.969C921.449 55.6023 924.414 54.9986 926.865 53.7912C929.35 52.5483 931.25 50.7905 932.564 48.5178C933.914 46.245 934.588 43.5639 934.588 40.4744C934.588 37.3494 933.914 34.6861 932.564 32.4844C931.25 30.2472 929.35 28.5426 926.865 27.3707C924.414 26.1633 921.449 25.5597 917.969 25.5597H907.529V111H877.912ZM976.35 111V1.90909H1005.97V44.5227H1045.17V1.90909H1074.79V111H1045.17V68.3864H1005.97V111H976.35ZM1084.38 1.90909H1117.4L1138.71 46.2273H1139.56L1160.87 1.90909H1193.89L1153.84 76.696V111H1124.43V76.696L1084.38 1.90909ZM1335.28 42.8182H1305.23C1305.02 40.3324 1304.45 38.0774 1303.53 36.0533C1302.64 34.0291 1301.4 32.2891 1299.8 30.8331C1298.24 29.3416 1296.34 28.2053 1294.1 27.424C1291.86 26.6072 1289.32 26.1989 1286.48 26.1989C1281.51 26.1989 1277.3 27.4062 1273.86 29.821C1270.45 32.2358 1267.86 35.6981 1266.08 40.2081C1264.34 44.718 1263.47 50.1335 1263.47 56.4545C1263.47 63.1307 1264.36 68.7237 1266.14 73.2337C1267.95 77.7081 1270.56 81.0817 1273.97 83.3544C1277.38 85.5916 1281.48 86.7102 1286.27 86.7102C1289 86.7102 1291.46 86.3729 1293.62 85.6982C1295.79 84.9879 1297.67 83.9759 1299.27 82.6619C1300.87 81.348 1302.16 79.7678 1303.16 77.9212C1304.19 76.0391 1304.88 73.9261 1305.23 71.5824L1335.28 71.7955C1334.92 76.4119 1333.63 81.1172 1331.39 85.9112C1329.15 90.6697 1325.97 95.0732 1321.85 99.1214C1317.77 103.134 1312.71 106.366 1306.67 108.816C1300.63 111.266 1293.62 112.491 1285.63 112.491C1275.62 112.491 1266.63 110.343 1258.68 106.046C1250.76 101.749 1244.49 95.4283 1239.88 87.0831C1235.29 78.7379 1233 68.5284 1233 56.4545C1233 44.3097 1235.35 34.0824 1240.03 25.7727C1244.72 17.4276 1251.04 11.1243 1259 6.86292C1266.95 2.56605 1275.83 0.41761 1285.63 0.41761C1292.52 0.41761 1298.86 1.35866 1304.65 3.24076C1310.44 5.12287 1315.51 7.875 1319.88 11.4972C1324.25 15.0838 1327.77 19.505 1330.43 24.7607C1333.09 30.0163 1334.71 36.0355 1335.28 42.8182ZM1348.71 111V1.90909H1378.33V87.1364H1422.43V111H1348.71ZM1498.97 1.90909H1528.58V71.7955C1528.58 80.1051 1526.59 87.2962 1522.62 93.3686C1518.67 99.4055 1513.17 104.075 1506.1 107.378C1499.04 110.645 1490.83 112.278 1481.49 112.278C1472.08 112.278 1463.85 110.645 1456.78 107.378C1449.71 104.075 1444.21 99.4055 1440.27 93.3686C1436.36 87.2962 1434.41 80.1051 1434.41 71.7955V1.90909H1464.02V69.2386C1464.02 72.6122 1464.77 75.6307 1466.26 78.294C1467.75 80.9219 1469.81 82.9815 1472.44 84.473C1475.1 85.9645 1478.12 86.7102 1481.49 86.7102C1484.9 86.7102 1487.92 85.9645 1490.55 84.473C1493.18 82.9815 1495.24 80.9219 1496.73 78.294C1498.22 75.6307 1498.97 72.6122 1498.97 69.2386V1.90909ZM1542.66 111V1.90909H1589.96C1598.27 1.90909 1605.25 3.0277 1610.89 5.26492C1616.58 7.50213 1620.85 10.6626 1623.73 14.7464C1626.64 18.8303 1628.1 23.642 1628.1 29.1818C1628.1 33.1946 1627.21 36.8523 1625.44 40.1548C1623.7 43.4574 1621.24 46.2273 1618.08 48.4645C1614.92 50.6662 1611.23 52.1932 1607 53.0455V54.1108C1611.69 54.2884 1615.95 55.478 1619.79 57.6797C1623.62 59.8459 1626.68 62.8466 1628.95 66.6818C1631.22 70.4815 1632.36 74.956 1632.36 80.1051C1632.36 86.071 1630.8 91.38 1627.67 96.032C1624.58 100.684 1620.18 104.342 1614.46 107.005C1608.74 109.668 1601.93 111 1594.01 111H1542.66ZM1572.27 87.3494H1586.12C1591.1 87.3494 1594.82 86.4261 1597.31 84.5795C1599.8 82.6974 1601.04 79.9276 1601.04 76.2699C1601.04 73.7131 1600.45 71.5469 1599.28 69.7713C1598.11 67.9957 1596.44 66.6463 1594.27 65.723C1592.14 64.7997 1589.57 64.3381 1586.55 64.3381H1572.27V87.3494ZM1572.27 46.0142H1584.42C1587.01 46.0142 1589.3 45.6058 1591.29 44.7891C1593.28 43.9723 1594.82 42.8004 1595.93 41.2734C1597.06 39.7109 1597.63 37.8111 1597.63 35.5739C1597.63 32.2003 1596.42 29.6257 1594.01 27.8501C1591.59 26.0391 1588.54 25.1335 1584.85 25.1335H1572.27V46.0142Z" fill="url(#paint0_linear_1_169)" style="mix-blend-mode:color-dodge"/>
<defs>
<linearGradient id="paint0_linear_1_169" x1="814.5" y1="-35" x2="814.5" y2="147" gradientUnits="userSpaceOnUse">
<stop stop-color="#A7A7A7" stop-opacity="0.63"/>
<stop offset="1" stop-opacity="0"/>
</linearGradient>
</defs>
</svg>
